<?xml version="1.0" encoding="utf-8"?>
<!-- Generator: Adobe Illustrator 21.0.0, SVG Export Plug-In . SVG Version: 6.00 Build 0)  -->
<svg version="1.1" id="图层_1" xmlns="http://www.w3.org/2000/svg" xmlns:xlink="http://www.w3.org/1999/xlink" x="0px" y="0px"
	 viewBox="0 0 595.3 841.9" style="enable-background:new 0 0 595.3 841.9;" xml:space="preserve">
<style type="text/css">
	.st0{fill-rule:evenodd;clip-rule:evenodd;fill:#FFFFFF;}
</style>
<path class="st0" d="M480.5,479.5c-3.5,0-6.7-1.6-8.9-4h-6.1c-2.2,2.4-5.4,4-8.9,4s-6.7-1.6-8.9-4h-6.1c-2.2,2.4-5.4,4-8.9,4
	s-6.7-1.6-8.9-4h-6.1c-2.2,2.4-5.4,4-8.9,4s-6.7-1.6-8.9-4h-6.1c-2.2,2.4-5.4,4-8.9,4s-6.7-1.6-8.9-4h-6.1c-2.2,2.4-5.4,4-8.9,4
	s-6.7-1.6-8.9-4h-6.1c-2.2,2.4-5.4,4-8.9,4s-6.7-1.6-8.9-4h-6.1c-2.2,2.4-5.4,4-8.9,4s-6.7-1.6-8.9-4h-6.1c-2.2,2.4-5.4,4-8.9,4
	s-6.7-1.6-8.9-4h-6.1c-2.2,2.4-5.4,4-8.9,4s-6.7-1.6-8.9-4h-6.1c-2.2,2.4-5.4,4-8.9,4s-6.7-1.6-8.9-4h-6.1c-2.2,2.4-5.4,4-8.9,4
	s-6.7-1.6-8.9-4h-6.1c-2.2,2.4-5.4,4-8.9,4s-6.7-1.6-8.9-4h-6.1c-2.2,2.4-5.4,4-8.9,4s-6.7-1.6-8.9-4h-6.1c-2.2,2.4-5.4,4-8.9,4
	s-6.7-1.6-8.9-4h-6.1c-2.2,2.4-5.4,4-8.9,4s-6.7-1.6-8.9-4h-6.1c-2.2,2.4-5.4,4-8.9,4s-6.7-1.6-8.9-4h-6.1c-2.2,2.4-5.4,4-8.9,4
	s-6.7-1.6-8.9-4h-6.1c-2.2,2.4-5.4,4-8.9,4s-6.7-1.6-8.9-4h-6.1c-2.2,2.4-5.4,4-8.9,4s-6.7-1.6-8.9-4H9.4c-2.2,2.4-5.4,4-8.9,4
	s-6.7-1.6-8.9-4h-6.1c-2.2,2.4-5.4,4-8.9,4s-6.7-1.6-8.9-4h-6.1c-2.2,2.4-5.4,4-8.9,4s-6.7-1.6-8.9-4h-6.1c-2.2,2.4-5.4,4-8.9,4
	s-6.7-1.6-8.9-4h-6.1c-2.2,2.4-5.4,4-8.9,4s-6.7-1.6-8.9-4h-6.1c-2.2,2.4-5.4,4-8.9,4s-6.7-1.6-8.9-4h-6.1c-2.2,2.4-5.4,4-8.9,4
	s-6.7-1.6-8.9-4h-6.1c-2.2,2.4-5.4,4-8.9,4s-6.7-1.6-8.9-4h-6.1c-2.2,2.4-5.4,4-8.9,4s-6.7-1.6-8.9-4h-6.1c-2.2,2.4-5.4,4-8.9,4
	s-6.7-1.6-8.9-4h-6.1c-2.2,2.4-5.4,4-8.9,4c-1,0-2-0.1-3-0.4v-23.2V343.5c0-8.8,7.2-16,16-16h694c8.8,0,16,7.2,16,16v112.4v23.2
	C482.5,479.4,481.5,479.5,480.5,479.5z"/>
</svg>
